<?xml version="1.0" encoding="UTF-8"?>
<svg xmlns="http://www.w3.org/2000/svg" xmlns:xlink="http://www.w3.org/1999/xlink" width="40px" height="40px" viewBox="0 0 40 40" version="1.1">
<g id="surface1">
<path style="fill-rule:nonzero;fill:rgb(100%,100%,100%);fill-opacity:1;stroke-width:1;stroke-linecap:butt;stroke-linejoin:miter;stroke:rgb(100%,100%,100%);stroke-opacity:1;stroke-miterlimit:4;" d="M 13.000781 3 C 13.000781 2.446875 12.553125 1.999219 12 1.999219 C 11.446875 1.999219 10.999219 2.446875 10.999219 3 L 10.999219 10.999219 L 3 10.999219 C 2.446875 10.999219 1.999219 11.446875 1.999219 12 C 1.999219 12.553125 2.446875 13.000781 3 13.000781 L 10.999219 13.000781 L 10.999219 21 C 10.999219 21.553125 11.446875 22.000781 12 22.000781 C 12.553125 22.000781 13.000781 21.553125 13.000781 21 L 13.000781 13.000781 L 21 13.000781 C 21.553125 13.000781 22.000781 12.553125 22.000781 12 C 22.000781 11.446875 21.553125 10.999219 21 10.999219 L 13.000781 10.999219 Z M 13.000781 3 " transform="matrix(1.666667,0,0,1.666667,0,0)"/>
</g>
</svg>
